<?xml version="1.0" encoding="UTF-8"?>
<!-- Generator: Adobe Illustrator 22.0.1, SVG Export Plug-In . SVG Version: 6.00 Build 0) -->
<svg xmlns="http://www.w3.org/2000/svg" xmlns:xlink="http://www.w3.org/1999/xlink" id="Layer_1" x="0px" y="0px" viewBox="0 0 130.3 122" style="enable-background:new 0 0 130.3 122;" xml:space="preserve"> <style type="text/css"> .st0{fill:#272447;} .st1{fill:#231F3D;} .st2{fill:#DF9B3F;} .st3{fill:url(#XMLID_2_);} .st4{fill:url(#XMLID_3_);} </style> <g id="XMLID_654_"> <g id="XMLID_665_"> <path id="XMLID_680_" class="st0" d="M7.2,86.3c0,1.5-1.3,2.8-2.8,2.8c-1.5,0-2.8-1.3-2.8-2.8c0-1.5,1.3-2.8,2.8-2.8 C6,83.5,7.2,84.7,7.2,86.3z"/> <path id="XMLID_677_" class="st0" d="M54.2,88c-3-4.6-9.1-5.8-13.6-2.9c-4.6,3-5.8,9.1-2.9,13.6c3,4.6,9.1,5.8,13.6,2.9 C55.9,98.6,57.2,92.6,54.2,88z M45.9,97.9c-2.5,0-4.6-2-4.6-4.6c0-2.5,2-4.6,4.6-4.6c2.5,0,4.6,2,4.6,4.6 C50.5,95.9,48.5,97.9,45.9,97.9z"/> <g id="XMLID_670_"> <path id="XMLID_675_" class="st0" d="M16.7,84.2l5.2,0l0,14.1l9,0l0,4.5l-14.2,0L16.7,84.2z"/> <path id="XMLID_673_" class="st0" d="M62.7,93.4c0-5.4,4.2-9.7,10-9.7c3.3,0,5.6,1,7.5,2.7l-3,3.6c-1.3-1.1-2.7-1.8-4.5-1.8 c-2.7,0-4.8,2.3-4.8,5.2c0,3,2.1,5.2,5,5.2c1.2,0,2.2-0.3,3-0.8l0-2.3l-3.7,0l0-3.8l8.6,0l0,8.4c-2,1.6-4.7,2.9-8.1,2.9 C67.1,103.1,62.7,99.1,62.7,93.4z"/> <path id="XMLID_671_" class="st0" d="M113.3,100l2.9-3.4c1.8,1.5,3.9,2.2,6,2.2c1.4,0,2.1-0.5,2.1-1.3c0-0.8-0.6-1.2-3.1-1.8 c-4-0.9-7-2-7-5.9c0-3.5,2.7-6,7.2-6c3.2,0,5.6,0.8,7.7,2.5l-2.6,3.6c-1.7-1.2-3.6-1.8-5.2-1.8c-1.3,0-1.9,0.5-1.9,1.2 c0,0.9,0.6,1.2,3.2,1.8c4.3,0.9,6.9,2.3,6.9,5.8c0,3.8-3,6.1-7.5,6.1C118.7,103.1,115.6,102,113.3,100z"/> </g> <rect id="XMLID_669_" x="2" y="91.1" class="st0" width="5" height="11.6"/> <path id="XMLID_666_" class="st0" d="M105.9,87.4c-1.6-2.1-3.9-3.5-6.3-3.9c0,0,0,0,0,0c-4.2-0.3-7.4-1.2-10.4-2.8 c0.7,3.3-0.1,7.1-1.2,11.4c0,0.1,0-0.1,0,0c-0.3,2.4,0.3,4.9,1.8,7c3.2,4.4,9.4,5.4,13.9,2.1C108.2,98,109.2,91.8,105.9,87.4z M98,97.8c-2.5,0.1-4.7-1.8-4.9-4.3c-0.1-2.5,1.8-4.7,4.3-4.9c2.5-0.1,4.7,1.8,4.9,4.3C102.5,95.4,100.6,97.6,98,97.8z"/> </g> <g id="XMLID_655_"> <path id="XMLID_664_" class="st0" d="M86.7,15.2c6.7,9.4,8,21.9,4.8,32.2c-2.2,7.1-9.5,16.2-8,24.3c-7.9-3.3-17.9-0.7-24.7-0.5 C47.4,71.4,36.1,66.2,29,56.2c-11.3-15.9-7.6-38,8.3-49.4C53.2-4.5,75.3-0.8,86.7,15.2z"/> <g id="XMLID_656_"> <path id="XMLID_663_" class="st1" d="M82.8,10.7c10.2,9.4,9.6,28.7-3.9,43.8c-12.3,13.8-36.3,15.8-47,4.6 c-10.2-10.6-11.5-34.7,2-48.2C47.5-2.5,70.3-0.9,82.8,10.7z"/> <path id="XMLID_662_" class="st2" d="M81.7,9.4c10.2,9.4,9.3,29.8-5,44.7c-11,11.5-34.3,15.5-46.3,3.3 C20.1,47,20.1,24.4,33.7,10.9C47.2-2.6,69.1-2.2,81.7,9.4z"/> <linearGradient id="XMLID_2_" gradientUnits="userSpaceOnUse" x1="36.1929" y1="3.0501" x2="66.0931" y2="54.8388" gradientTransform="matrix(1 -4.300000e-03 4.300000e-03 1 3.4657 2.2486)"> <stop offset="0" style="stop-color:#5A9AD5"/> <stop offset="0.8226" style="stop-color:#28254B"/> </linearGradient> <path id="XMLID_661_" class="st3" d="M82.9,10.4C82.4,10,73.5,0.1,57.7,0.1c-19.6,0.1-35.4,16-35.3,35.6c0,7,2.1,13.5,5.6,19 c8.1,11.4,29.4,12.7,44.8-0.6C88.7,40.6,90.7,18.1,82.9,10.4z"/> <linearGradient id="XMLID_3_" gradientUnits="userSpaceOnUse" x1="-498.4699" y1="-1456.1953" x2="-503.3235" y2="-1427.4543" gradientTransform="matrix(0.7859 -0.8307 0.8944 0.8461 1730.1556 827.5095)"> <stop offset="9.139780e-02" style="stop-color:#D47D20"/> <stop offset="0.2213" style="stop-color:#D78626"/> <stop offset="0.4289" style="stop-color:#DF9D35"/> <stop offset="0.6868" style="stop-color:#ECC34E"/> <stop offset="0.8441" style="stop-color:#F5DD5F"/> </linearGradient> <path id="XMLID_660_" class="st4" d="M62.5,7.6c7,7.2,6.8,18.8-2.5,28.3c-9.2,9.4-22.6,10-28.7,3.7c-7.8-8.1-6-19.5,2.7-28.2 C43.3,2.1,56.4,1.4,62.5,7.6z"/> <path id="XMLID_659_" class="st1" d="M34.9,14c9.3-9.3,22.7-9.8,29-3.3c0.9,0.9,1.7,1.9,2.4,3c-0.8-2.2-2.1-4.2-3.8-6 c-6-6.2-19.2-5.5-28.5,3.8c-7.4,7.4-9.8,16.7-5.6,24.3C25.9,28.6,28.4,20.5,34.9,14z"/> <g id="XMLID_657_"> <defs> <path id="XMLID_658_" d="M62.5,7.6c7,7.2,6.8,18.8-2.5,28.3c-9.2,9.4-22.6,10-28.7,3.7c-7.8-8.1-6-19.5,2.7-28.2 C43.3,2.1,56.4,1.4,62.5,7.6z"/> </defs> <clipPath id="XMLID_4_"> <use xlink:href="#XMLID_658_" style="overflow:visible;"/> </clipPath> </g> </g> </g> </g> <g> <path class="st0" d="M20.3,119.1c0-1.6,1.2-2.9,2.9-2.9c1,0,1.6,0.3,2.2,0.8l-0.6,0.8c-0.4-0.4-0.9-0.6-1.6-0.6c-1,0-1.8,0.9-1.8,2 c0,1.2,0.8,2,1.9,2c0.5,0,1-0.2,1.4-0.4v-1.1h-1.5v-0.9h2.4v2.4c-0.6,0.5-1.4,0.9-2.4,0.9C21.5,122,20.3,120.7,20.3,119.1z"/> <path class="st0" d="M31.3,116.2h0.9l2.5,5.7h-1.1l-0.6-1.4h-2.7l-0.6,1.4h-1L31.3,116.2z M32.8,119.6l-1-2.3l-1,2.3H32.8z"/> <path class="st0" d="M38.2,116.2h1.1l1.7,2.7l1.7-2.7h1.1v5.7h-1v-4.1l-1.8,2.7h0l-1.8-2.7v4.1h-1V116.2z"/> <path class="st0" d="M47.7,116.2h4.2v0.9h-3.2v1.5h2.8v0.9h-2.8v1.5h3.3v0.9h-4.2V116.2z"/> <path class="st0" d="M60,121.1l0.6-0.7c0.5,0.5,1.1,0.7,1.8,0.7c0.6,0,1-0.3,1-0.7c0-0.4-0.2-0.6-1.3-0.9c-1.2-0.3-1.9-0.6-1.9-1.7 c0-1,0.8-1.6,1.9-1.6c0.8,0,1.5,0.3,2.1,0.7l-0.5,0.8c-0.5-0.4-1-0.6-1.5-0.6c-0.6,0-0.9,0.3-0.9,0.7c0,0.4,0.3,0.6,1.3,0.9 c1.2,0.3,1.8,0.7,1.8,1.7c0,1.1-0.8,1.7-2,1.7C61.5,122,60.7,121.7,60,121.1z"/> <path class="st0" d="M69.3,117.2h-1.8v-0.9h4.6v0.9h-1.8v4.8h-1V117.2z"/> <path class="st0" d="M75.5,119.5v-3.3h1v3.2c0,1.1,0.5,1.6,1.4,1.6c0.9,0,1.4-0.5,1.4-1.6v-3.3h1v3.2c0,1.7-1,2.5-2.4,2.5 C76.4,122,75.5,121.1,75.5,119.5z"/> <path class="st0" d="M84.2,116.2h2.1c1.8,0,3,1.2,3,2.8c0,1.6-1.2,2.8-3,2.8h-2.1V116.2z M86.3,121c1.2,0,2-0.8,2-1.9 c0-1.1-0.8-1.9-2-1.9h-1.1v3.9H86.3z"/> <path class="st0" d="M93,116.2h1v5.7h-1V116.2z"/> <path class="st0" d="M97.7,119.1c0-1.6,1.2-2.9,3-2.9c1.7,0,3,1.3,3,2.9c0,1.6-1.2,2.9-3,2.9C98.9,122,97.7,120.7,97.7,119.1z M102.6,119.1c0-1.1-0.8-2-1.9-2c-1.1,0-1.9,0.9-1.9,2c0,1.1,0.8,2,1.9,2S102.6,120.2,102.6,119.1z"/> <path class="st0" d="M106.9,121.1l0.6-0.7c0.5,0.5,1.1,0.7,1.8,0.7c0.6,0,1-0.3,1-0.7c0-0.4-0.2-0.6-1.3-0.9 c-1.2-0.3-1.9-0.6-1.9-1.7c0-1,0.8-1.6,1.9-1.6c0.8,0,1.5,0.3,2.1,0.7l-0.5,0.8c-0.5-0.4-1-0.6-1.5-0.6c-0.6,0-0.9,0.3-0.9,0.7 c0,0.4,0.3,0.6,1.3,0.9c1.2,0.3,1.8,0.7,1.8,1.7c0,1.1-0.8,1.7-2,1.7C108.4,122,107.6,121.7,106.9,121.1z"/> </g> </svg>