<?xml version="1.0" encoding="UTF-8"?>
<svg xmlns="http://www.w3.org/2000/svg" width="841" height="274" viewBox="0 0 841 274"><path d="M471.5,143.5l-68,69s17.54,2.05,23.69.741c-3.9,11.74-13.559,36.733-29.69,68.259l-22-32h-38l44,62a682.852,682.852,0,0,1-71,101c-2.679,3.149-4.238,5-3,5,1.29,0,5.639-2.431,12-7,3.654-2.625,37.917-29.9,75-79l18,26h38l-36-53a469.168,469.168,0,0,0,43-83c7.023,9.871,13.347,15.316,16,16C473.268,227.046,471.5,143.5,471.5,143.5Zm-141,151c0-25.268-11.2-47-47-47-19.542,0-34.539,5.823-42,10l6,21c7.027-4.393,19.021-8,30-8,16.47,0,19,7.2,19,15-37.994-.22-63,14.1-63,42,0,0,.032,32,35,32,12.634,0,22.966-4.561,30-13,6.046,6.269,11.189,11,32,11Zm-33,24c0,4.857-2.6,18-18,18-12.938,0-13-12-13-12,0-12.641,14.058-18,31-18Zm473-4c0,2.639-.809,18-17,18-11.636,0-18-9.4-18-25v-58h-33v64s-2.1,47,38,47c21.2,0,28.313-9.854,32-14,4.815,5.865,12.168,11,32,11v-108h-34Zm100.791-22.674c-13.18-4.614-17.791-7.275-17.791-12.326,0-5.492,4.871-9,13-9a51.509,51.509,0,0,1,23,6l6-23c-6.6-3.294-17.485-6-30-6-26.58,0-44,14.783-44,35-.214,12.525,8.819,25.53,31,33,12.518,4.177,16,6.507,16,12s-4.9,9-15,9c-9.879,0-21.855-4.265-28-8l-6,24s8.583,8,35,8c30.755,0,46-15,46-35C900.279,309.68,891.714,298.858,871.291,291.826ZM471.5,250.5v107h33v-107C485.73,243.92,471.5,250.5,471.5,250.5Zm-286-3c-19.69,0-29.612,12.287-34,18-4.621-11.2-16.159-18-30-18a37.754,37.754,0,0,0-29,13v-10a49.3,49.3,0,0,0-33,0v107h33v-63c0-2.636.583-20,16-20,13.122,0,15,17.331,15,25v58h35v-63c0-2.64.646-20.027,16.059-20.027,10.77,0,14.941,9.424,14.941,25.027v58h33v-63C222.5,262.422,206.159,247.5,185.5,247.5Zm464,0c-19.69,0-29.612,12.287-34,18-4.621-11.2-16.159-18-30-18a37.754,37.754,0,0,0-29,13v-10a49.3,49.3,0,0,0-33,0v107h33v-63c0-2.636.582-20,16-20,13.122,0,15,17.331,15,25v58h35v-63c0-2.64.646-20.027,16.059-20.027,10.77,0,14.941,9.424,14.941,25.027v58h33v-63C686.5,262.422,670.159,247.5,649.5,247.5Z" transform="translate(-59.5 -143.5)" fill="#f11"></path></svg>
